<svg xmlns="http://www.w3.org/2000/svg" viewBox="0 0 800 800" width="100%" height="100%">
  <defs>
    <linearGradient id="grad-cyber" x1="0%" y1="0%" x2="100%" y2="100%">
      <stop offset="0%" stop-color="#00f2fe" stop-opacity="0.8" />
      <stop offset="100%" stop-color="#4facfe" stop-opacity="0.8" />
    </linearGradient>

    <linearGradient id="grad-violet" x1="0%" y1="0%" x2="100%" y2="100%">
      <stop offset="0%" stop-color="#b92b27" stop-opacity="0.8" />
      <stop offset="100%" stop-color="#1565C0" stop-opacity="0.8" />
    </linearGradient>

    <linearGradient id="grad-gold" x1="0%" y1="0%" x2="100%" y2="100%">
      <stop offset="0%" stop-color="#F7971E" stop-opacity="0.85" />
      <stop offset="100%" stop-color="#FFD200" stop-opacity="0.85" />
    </linearGradient>

    <linearGradient id="grad-aura" x1="0%" y1="0%" x2="100%" y2="100%">
      <stop offset="0%" stop-color="#11998e" stop-opacity="0.75" />
      <stop offset="100%" stop-color="#38ef7d" stop-opacity="0.75" />
    </linearGradient>

    <pattern id="telegram-luxury-gradient-pattern" x="0" y="0" width="800" height="800" patternUnits="userSpaceOnUse">
      
      <g fill="none" stroke="url(#grad-gold)" stroke-width="1.8" stroke-linecap="round" stroke-linejoin="round">
        <path d="M 50 50 L 65 75 L 90 55 L 115 75 L 130 50 L 122 90 H 58 Z" />
        <circle cx="90" cy="48" r="3" fill="url(#grad-gold)" />

        <path d="M 370 50 L 395 30 L 420 50 L 395 90 Z M 370 50 H 420" />
        <path d="M 385 30 L 395 50 L 405 30" />

        <path d="M 700 50 Q 700 75 725 75 Q 700 75 700 100 Q 700 75 675 75 Q 700 75 700 50 Z" />
        <path d="M 220 370 Q 220 385 235 385 Q 220 385 220 400 Q 220 385 205 385 Q 220 385 220 370 Z" />

        <polygon points="530,360 542,372 558,372 546,384 550,400 530,390 510,400 514,384 502,372 518,372" />

        <path d="M 680 520 H 710 L 680 560 H 710 Z M 680 520 V 525 H 710 V 520 M 680 560 V 565 H 710 V 560" />
      </g>

      <g fill="none" stroke="url(#grad-cyber)" stroke-width="1.8" stroke-linecap="round" stroke-linejoin="round">
        <circle cx="230" cy="65" r="4" fill="url(#grad-cyber)" />
        <circle cx="270" cy="50" r="4" fill="url(#grad-cyber)" />
        <circle cx="280" cy="90" r="4" fill="url(#grad-cyber)" />
        <circle cx="230" cy="100" r="4" fill="url(#grad-cyber)" />
        <path d="M 230 65 L 270 50 L 280 90 L 230 100 L 230 65 L 280 90 M 270 50 L 230 100" />

        <path d="M 530 60 L 585 30 L 555 100 L 540 75 L 530 60 Z" />
        <path d="M 540 75 L 568 50" />

        <path d="M 50 200 H 80 L 100 220 V 250" />
        <circle cx="100" cy="253" r="3" fill="url(#grad-cyber)" />
        <circle cx="50" cy="200" r="3" fill="url(#grad-cyber)" />

        <path d="M 360 210 l -12 15 l 12 15" />
        <path d="M 390 210 l 12 15 l -12 15" />
        <path d="M 380 205 l -10 32" />

        <circle cx="690" cy="220" r="15" />
        <ellipse cx="690" cy="220" rx="28" ry="8" transform="rotate(-25 690 220)" />

        <ellipse cx="370" cy="540" rx="24" ry="8" />
        <ellipse cx="370" cy="540" rx="24" ry="8" transform="rotate(60 370 540)" />
        <ellipse cx="370" cy="540" rx="24" ry="8" transform="rotate(120 370 540)" />
        <circle cx="370" cy="540" r="3" fill="url(#grad-cyber)" />

        <path d="M 50 680 A 20 20 0 0 1 80 710 L 50 680 Z" />
        <path d="M 70 685 L 85 670" />
        <circle cx="88" cy="667" r="2" fill="url(#grad-cyber)" />
        <path d="M 55 715 L 40 730 M 70 715 L 85 730" />
      </g>

      <g fill="none" stroke="url(#grad-violet)" stroke-width="1.8" stroke-linecap="round" stroke-linejoin="round">
        <rect x="210" y="200" width="38" height="28" rx="8" />
        <circle cx="223" cy="214" r="3" fill="url(#grad-violet)" />
        <circle cx="237" cy="214" r="3" fill="url(#grad-violet)" />
        <path d="M 229 190 v 10" />
        <circle cx="229" cy="188" r="2.5" fill="url(#grad-violet)" />

        <path d="M 530 200 c -24 0 -36 15 -36 30 c 0 18 15 30 30 30 c 6 0 10 -5 10 -10 c 0 -4 -3 -6 -3 -10 c 0 -5 5 -8 10 -8 h 8 c 14 0 22 -10 22 -18 C 571 210 553 200 530 200 Z" />
        <circle cx="512" cy="220" r="2.5" fill="url(#grad-violet)" />
        <circle cx="530" cy="212" r="2.5" fill="url(#grad-violet)" />
        <circle cx="548" cy="222" r="2.5" fill="url(#grad-violet)" />

        <path d="M 50 360 h 42 a 12 12 0 0 1 12 12 v 22 a 12 12 0 0 1 -12 12 h -22 l -12 12 v -12 h -8 a 12 12 0 0 1 -12 -12 v -22 a 12 12 0 0 1 12 -12 Z" />
        <path d="M 71 377 c -3 -4 -8 -2 -8 2 c 0 5 8 9 8 9 c 0 0 8 -4 8 -9 c 0 -4 -5 -6 -8 -2 Z" fill="url(#grad-violet)" />

        <path d="M 370 380 v -30 l 25 -8 v 30" />
        <circle cx="363" cy="380" r="7" fill="url(#grad-violet)" />
        <circle cx="388" cy="372" r="7" fill="url(#grad-violet)" />

        <rect x="670" y="360" width="46" height="28" rx="10" />
        <path d="M 682 374 h 10 M 687 369 v 10" />
        <circle cx="704" cy="371" r="2.5" fill="url(#grad-violet)" />
        <circle cx="710" cy="377" r="2.5" fill="url(#grad-violet)" />

        <rect x="200" y="525" width="40" height="28" rx="6" />
        <path d="M 212 525 l 4 -6 h 8 l 4 6" />
        <circle cx="220" cy="539" r="8" />

        <path d="M 500 530 h 50 a 8 8 0 0 1 8 8 v 12 a 8 8 0 0 1 -8 8 h -18 l -7 -6 l -7 6 h -18 a 8 8 0 0 1 -8 -8 v -12 a 8 8 0 0 1 8 -8 Z" />
        <line x1="490" y1="544" x2="558" y2="544" stroke-dasharray="4 2" />

        <path d="M 680 680 c -12 -15 -30 0 -15 15 l 30 20 c 15 15 33 0 18 -15 Z" />
        <path d="M 710 680 c 12 -15 30 0 15 15 l -30 20 c -15 15 -33 0 -18 -15 Z" />
      </g>

      <g fill="none" stroke="url(#grad-aura)" stroke-width="1.8" stroke-linecap="round" stroke-linejoin="round">
        <path d="M 50 510 L 75 498 L 100 510 V 535 C 100 555 75 568 75 568 C 75 568 50 555 50 535 Z" />
        <path d="M 68 532 l 6 6 l 10 -12" />

        <path d="M 530 510 C 555 510 568 535 568 560 L 530 572 L 518 534 C 518 534 530 510 530 510 Z" />
        <path d="M 518 534 L 505 546 L 524 565" />
        <circle cx="543" cy="540" r="3.5" fill="url(#grad-aura)" />

        <path d="M 210 680 a 16 16 0 1 1 26 0 c -3 5 -6 9 -6 15 h -14 c 0 -6 -3 -10 -6 -15 Z" />
        <path d="M 223 701 h 12 M 225 706 h 8" />

        <path d="M 360 680 h 28 v 22 a 12 12 0 0 1 -12 12 h -4 a 12 12 0 0 1 -12 -12 Z" />
        <path d="M 388 685 h 6 a 6 6 0 0 1 6 6 v 2 a 6 6 0 0 1 -6 6 h -6" />
        <path d="M 368 672 Q 370 665 368 660 M 378 672 Q 380 665 378 660" />

        <circle cx="530" cy="690" r="20" />
        <polygon points="524,696 536,680 530,690" fill="url(#grad-aura)" />
        <polygon points="536,684 524,700 530,690" />
      </g>

      <g fill="none" stroke="url(#grad-cyber)" stroke-width="1.2" opacity="0.6">
        <circle cx="150" cy="140" r="18" stroke-dasharray="3 3" />
        <circle cx="150" cy="140" r="8" />
        
        <circle cx="630" cy="460" r="22" stroke-dasharray="4 4" />
        <circle cx="630" cy="460" r="10" />

        <circle cx="300" cy="740" r="16" stroke-dasharray="2 4" />
      </g>

      <g stroke="url(#grad-gold)" stroke-width="1.4" fill="none">
        <path d="M 300 140 h 10 M 305 135 v 10" />
        <path d="M 620 140 h 10 M 625 135 v 10" />
        <path d="M 140 300 h 10 M 145 295 v 10" />
        <path d="M 450 300 h 10 M 455 295 v 10" />
        <path d="M 750 300 h 10 M 755 295 v 10" />
        <path d="M 290 460 h 10 M 295 455 v 10" />
        <path d="M 130 610 h 10 M 135 605 v 10" />
        <path d="M 610 610 h 10 M 615 605 v 10" />

        <polygon points="460,120 468,125 468,135 460,140 452,135 452,125" />
        <polygon points="130,450 138,455 138,465 130,470 122,465 122,455" />
        <polygon points="450,600 458,605 458,615 450,620 442,615 442,605" />
      </g>

      <g fill="url(#grad-violet)">
        <circle cx="80" cy="130" r="2" />
        <circle cx="280" cy="270" r="2.5" />
        <circle cx="600" cy="270" r="2" />
        <circle cx="430" cy="430" r="3" />
        <circle cx="760" cy="440" r="2" />
        <circle cx="260" cy="600" r="2.5" />
        <circle cx="640" cy="740" r="2" />
      </g>

      <path d="M 230 300 Q 245 285 260 300 T 290 300" fill="none" stroke="url(#grad-cyber)" stroke-width="1.5" stroke-linecap="round" />
      <path d="M 590 300 Q 605 315 620 300 T 650 300" fill="none" stroke="url(#grad-violet)" stroke-width="1.5" stroke-linecap="round" />
      <path d="M 370 460 Q 385 445 400 460 T 430 460" fill="none" stroke="url(#grad-aura)" stroke-width="1.5" stroke-linecap="round" />
      <path d="M 680 600 Q 695 615 710 600 T 740 600" fill="none" stroke="url(#grad-gold)" stroke-width="1.5" stroke-linecap="round" />

    </pattern>
  </defs>

  <rect width="100%" height="100%" fill="url(#telegram-luxury-gradient-pattern)" />
</svg>
